<svg width="150" height="150" viewBox="0 0 150 150" fill="none" xmlns="http://www.w3.org/2000/svg">
<path d="M150 0.0368008C148.682 4.93119 146.121 9.34718 144.125 13.9472C137.459 29.3663 130.643 44.7119 123.864 60.0943C111.248 88.7614 98.5942 117.465 86.0534 146.169C84.8483 148.929 83.3419 150.07 80.1032 149.997C69.8973 149.776 59.6538 149.923 49.4102 149.886C46.3974 149.886 46.2468 149.555 47.3766 146.942C56.6786 125.819 65.943 104.696 75.245 83.5726C84.4341 62.7071 93.6608 41.8415 102.85 20.976C103.452 19.5776 104.469 18.8416 105.863 18.2528C120.023 12.4016 134.183 6.51359 148.305 0.625599C148.72 0.441599 149.096 0.2208 149.473 0C149.661 0.0367999 149.812 0.0368008 150 0.0368008Z" fill="#C0C71E"/>
<path d="M0.0376609 42.7246C11.3357 42.7246 22.6337 42.7246 33.894 42.7614C37.2834 42.7614 37.3588 42.9822 36.0407 45.9262C30.6176 58.2542 25.1946 70.619 19.7715 82.9837C19.4326 83.7565 19.3573 84.9709 18.3404 84.9341C17.3236 84.8973 17.2483 83.6829 16.9094 82.9469C11.6746 71.171 6.47753 59.395 1.24278 47.619C0.903841 46.8462 0.41426 46.1102 0 45.3374C0.03766 44.4542 0.0376609 43.571 0.0376609 42.7246Z" fill="#C0C71E"/>
<path d="M22.9727 96.8575C23.161 96.3055 23.2739 95.7168 23.5376 95.1648C29.4878 81.6224 35.4758 68.1168 41.4261 54.5744C42.8195 51.3728 44.2129 48.208 45.5687 45.0065C46.1336 43.6817 46.9621 42.6881 48.3932 42.0625C62.2897 36.3217 76.1863 30.5441 90.0828 24.8033C90.7984 24.5089 91.6646 23.8097 92.3048 24.3985C93.1333 25.1713 92.1918 25.9809 91.8529 26.7169C81.6847 49.9744 71.4788 73.2688 61.2353 96.4895C55.285 110.032 49.2594 123.537 43.2714 137.043C42.9701 137.742 42.8948 138.846 42.0286 138.92C40.9365 139.03 40.7859 137.816 40.4846 137.08C34.7602 124.09 29.0736 111.099 23.3869 98.1088C23.1986 97.7776 23.1233 97.3359 22.9727 96.8575Z" fill="#62943B"/>
</svg>
